<svg width="90" height="20" viewBox="0 0 90 20" fill="none" xmlns="http://www.w3.org/2000/svg">
<path d="M12.84 1.84C12.7867 2.52 12.7467 3.17333 12.72 3.8C12.7067 4.42667 12.7 4.90667 12.7 5.24C12.7 5.53333 12.7067 5.81333 12.72 6.08C12.7333 6.34667 12.7467 6.57333 12.76 6.76H12.3C12.0867 5.64 11.8133 4.75333 11.48 4.1C11.16 3.44667 10.7733 2.98667 10.32 2.72C9.86667 2.44 9.33333 2.3 8.72 2.3H8.26V13.72C8.26 14.2533 8.31333 14.6533 8.42 14.92C8.54 15.1867 8.75333 15.3667 9.06 15.46C9.36667 15.54 9.81333 15.5867 10.4 15.6V16C9.98667 15.9867 9.43333 15.9733 8.74 15.96C8.06 15.9467 7.34667 15.94 6.6 15.94C5.86667 15.94 5.17333 15.9467 4.52 15.96C3.86667 15.9733 3.34 15.9867 2.94 16V15.6C3.54 15.5867 3.99333 15.54 4.3 15.46C4.60667 15.3667 4.81333 15.1867 4.92 14.92C5.02667 14.6533 5.08 14.2533 5.08 13.72V2.3H4.64C4.02667 2.3 3.49333 2.44 3.04 2.72C2.58667 2.98667 2.2 3.44667 1.88 4.1C1.56 4.74 1.28 5.62667 1.04 6.76H0.58C0.606667 6.57333 0.62 6.34667 0.62 6.08C0.633333 5.81333 0.64 5.53333 0.64 5.24C0.64 4.90667 0.626667 4.42667 0.6 3.8C0.586667 3.17333 0.553333 2.52 0.5 1.84C1.11333 1.85333 1.78 1.86667 2.5 1.88C3.23333 1.89333 3.96667 1.9 4.7 1.9C5.43333 1.9 6.09333 1.9 6.68 1.9C7.28 1.9 7.94 1.9 8.66 1.9C9.39333 1.9 10.1267 1.89333 10.86 1.88C11.5933 1.86667 12.2533 1.85333 12.84 1.84ZM16.0916 16.14C15.4916 16.14 14.9916 16.0267 14.5916 15.8C14.1916 15.5733 13.8982 15.2733 13.7116 14.9C13.5249 14.5133 13.4316 14.0933 13.4316 13.64C13.4316 13.0667 13.5582 12.6 13.8116 12.24C14.0782 11.88 14.4182 11.5867 14.8316 11.36C15.2449 11.1333 15.6782 10.9467 16.1316 10.8C16.5982 10.6533 17.0382 10.5133 17.4516 10.38C17.8782 10.2333 18.2182 10.0667 18.4716 9.88C18.7382 9.68 18.8716 9.42667 18.8716 9.12V7.56C18.8716 7.21333 18.8116 6.90667 18.6916 6.64C18.5849 6.36 18.4116 6.14667 18.1716 6C17.9449 5.85333 17.6449 5.78 17.2716 5.78C17.0049 5.78 16.7382 5.82 16.4716 5.9C16.2049 5.96667 15.9849 6.08667 15.8116 6.26C16.1849 6.39333 16.4716 6.6 16.6716 6.88C16.8849 7.14667 16.9916 7.45333 16.9916 7.8C16.9916 8.25333 16.8316 8.61333 16.5116 8.88C16.2049 9.14667 15.8382 9.28 15.4116 9.28C14.9316 9.28 14.5649 9.13333 14.3116 8.84C14.0716 8.53333 13.9516 8.16667 13.9516 7.74C13.9516 7.35333 14.0449 7.03333 14.2316 6.78C14.4316 6.52667 14.7049 6.28667 15.0516 6.06C15.4249 5.84667 15.8716 5.68 16.3916 5.56C16.9249 5.44 17.4982 5.38 18.1116 5.38C18.7249 5.38 19.2782 5.44667 19.7716 5.58C20.2649 5.7 20.6782 5.92667 21.0116 6.26C21.3182 6.56667 21.5182 6.94667 21.6116 7.4C21.7049 7.84 21.7516 8.4 21.7516 9.08V14.52C21.7516 14.8533 21.7849 15.0867 21.8516 15.22C21.9182 15.34 22.0316 15.4 22.1916 15.4C22.3116 15.4 22.4249 15.3667 22.5316 15.3C22.6516 15.2333 22.7782 15.1533 22.9116 15.06L23.1116 15.4C22.8316 15.64 22.5049 15.8267 22.1316 15.96C21.7716 16.08 21.3649 16.14 20.9116 16.14C20.4182 16.14 20.0249 16.0733 19.7316 15.94C19.4382 15.7933 19.2249 15.6 19.0916 15.36C18.9716 15.12 18.9116 14.84 18.9116 14.52C18.5916 15.0267 18.2049 15.4267 17.7516 15.72C17.2982 16 16.7449 16.14 16.0916 16.14ZM17.5116 14.86C17.7782 14.86 18.0182 14.8 18.2316 14.68C18.4582 14.5467 18.6716 14.3333 18.8716 14.04V9.94C18.7516 10.14 18.5849 10.32 18.3716 10.48C18.1582 10.64 17.9316 10.8067 17.6916 10.98C17.4516 11.14 17.2182 11.32 16.9916 11.52C16.7782 11.72 16.6049 11.9667 16.4716 12.26C16.3382 12.5533 16.2716 12.9067 16.2716 13.32C16.2716 13.84 16.3849 14.2267 16.6116 14.48C16.8382 14.7333 17.1382 14.86 17.5116 14.86ZM33.6431 5.44V13.82C33.6431 14.42 33.7365 14.8667 33.9231 15.16C34.1098 15.44 34.4431 15.58 34.9231 15.58V16C34.5098 15.96 34.0965 15.94 33.6831 15.94C33.1231 15.94 32.6031 15.96 32.1231 16C31.6431 16.04 31.1898 16.1133 30.7631 16.22V14.42C30.4431 15.0867 29.9965 15.5667 29.4231 15.86C28.8631 16.14 28.2365 16.28 27.5431 16.28C26.9831 16.28 26.5298 16.2067 26.1831 16.06C25.8365 15.9133 25.5631 15.7267 25.3631 15.5C25.1365 15.2467 24.9765 14.9133 24.8831 14.5C24.7898 14.0867 24.7431 13.5533 24.7431 12.9V7.84C24.7431 7.24 24.6498 6.8 24.4631 6.52C24.2898 6.22667 23.9565 6.08 23.4631 6.08V5.66C23.8898 5.7 24.3031 5.72 24.7031 5.72C25.2631 5.72 25.7831 5.7 26.2631 5.66C26.7565 5.60667 27.2098 5.53333 27.6231 5.44V13.72C27.6231 14.0533 27.6498 14.3467 27.7031 14.6C27.7698 14.8533 27.8898 15.0533 28.0631 15.2C28.2365 15.3333 28.4898 15.4 28.8231 15.4C29.1831 15.4 29.5031 15.3 29.7831 15.1C30.0765 14.9 30.3098 14.6267 30.4831 14.28C30.6698 13.92 30.7631 13.52 30.7631 13.08V7.84C30.7631 7.24 30.6698 6.8 30.4831 6.52C30.3098 6.22667 29.9765 6.08 29.4831 6.08V5.66C29.9098 5.7 30.3231 5.72 30.7231 5.72C31.2831 5.72 31.8031 5.7 32.2831 5.66C32.7765 5.60667 33.2298 5.53333 33.6431 5.44ZM39.692 19.76C38.8654 19.76 38.1254 19.6867 37.472 19.54C36.832 19.4067 36.3254 19.1933 35.952 18.9C35.592 18.62 35.412 18.2733 35.412 17.86C35.412 17.4467 35.5987 17.0733 35.972 16.74C36.3454 16.42 36.8987 16.1667 37.632 15.98L37.812 16.3C37.5587 16.5 37.372 16.7133 37.252 16.94C37.1454 17.18 37.092 17.4267 37.092 17.68C37.092 18.24 37.3454 18.6667 37.852 18.96C38.372 19.2667 39.072 19.42 39.952 19.42C40.552 19.42 41.0854 19.34 41.552 19.18C42.032 19.02 42.4054 18.78 42.672 18.46C42.952 18.14 43.092 17.7467 43.092 17.28C43.092 16.88 42.9454 16.54 42.652 16.26C42.3587 15.9933 41.772 15.86 40.892 15.86H39.652C39.1054 15.86 38.6254 15.8 38.212 15.68C37.812 15.56 37.4987 15.3733 37.272 15.12C37.0454 14.8533 36.932 14.52 36.932 14.12C36.932 13.56 37.152 13.0667 37.592 12.64C38.032 12.2133 38.6854 11.8133 39.552 11.44L39.752 11.6C39.4987 11.76 39.2587 11.9333 39.032 12.12C38.8187 12.2933 38.712 12.52 38.712 12.8C38.712 13.2267 38.9787 13.44 39.512 13.44H41.692C42.4254 13.44 43.0787 13.5267 43.652 13.7C44.2387 13.8733 44.6987 14.16 45.032 14.56C45.3787 14.9467 45.552 15.4533 45.552 16.08C45.552 16.7333 45.3387 17.34 44.912 17.9C44.4987 18.46 43.8587 18.9067 42.992 19.24C42.1254 19.5867 41.0254 19.76 39.692 19.76ZM39.892 11.74C39.132 11.74 38.452 11.6267 37.852 11.4C37.252 11.1733 36.7787 10.8267 36.432 10.36C36.0854 9.89333 35.912 9.29333 35.912 8.56C35.912 7.82667 36.0854 7.22667 36.432 6.76C36.7787 6.28 37.252 5.93333 37.852 5.72C38.452 5.49333 39.132 5.38 39.892 5.38C40.652 5.38 41.332 5.49333 41.932 5.72C42.532 5.93333 43.0054 6.28 43.352 6.76C43.6987 7.22667 43.872 7.82667 43.872 8.56C43.872 9.29333 43.6987 9.89333 43.352 10.36C43.0054 10.8267 42.532 11.1733 41.932 11.4C41.332 11.6267 40.652 11.74 39.892 11.74ZM39.892 11.38C40.252 11.38 40.532 11.18 40.732 10.78C40.932 10.3667 41.032 9.62667 41.032 8.56C41.032 7.49333 40.932 6.76 40.732 6.36C40.532 5.94667 40.252 5.74 39.892 5.74C39.5454 5.74 39.2654 5.94667 39.052 6.36C38.852 6.76 38.752 7.49333 38.752 8.56C38.752 9.62667 38.852 10.3667 39.052 10.78C39.2654 11.18 39.5454 11.38 39.892 11.38ZM43.012 7.1L42.612 6.96C42.812 6.44 43.132 6.00667 43.572 5.66C44.0254 5.31333 44.512 5.14 45.032 5.14C45.4587 5.14 45.7787 5.26 45.992 5.5C46.2187 5.72667 46.332 6.02667 46.332 6.4C46.332 6.8 46.2254 7.1 46.012 7.3C45.7987 7.48667 45.5587 7.58 45.292 7.58C45.0654 7.58 44.852 7.5 44.652 7.34C44.4654 7.18 44.3587 6.94 44.332 6.62C44.3054 6.28667 44.4187 5.86 44.672 5.34L44.812 5.46C44.3054 5.64667 43.9254 5.86667 43.672 6.12C43.4187 6.36 43.1987 6.68667 43.012 7.1ZM50.9267 0.359999V7.24C51.2601 6.54667 51.7067 6.06667 52.2667 5.8C52.8401 5.52 53.4801 5.38 54.1867 5.38C54.7601 5.38 55.2201 5.45333 55.5667 5.6C55.9134 5.73333 56.1867 5.92 56.3867 6.16C56.6134 6.41333 56.7734 6.74 56.8667 7.14C56.9734 7.54 57.0267 8.08 57.0267 8.76V14.14C57.0267 14.7 57.1201 15.08 57.3067 15.28C57.5067 15.48 57.8401 15.58 58.3067 15.58V16C58.0534 15.9867 57.6667 15.9733 57.1467 15.96C56.6401 15.9333 56.1467 15.92 55.6667 15.92C55.1467 15.92 54.6401 15.9333 54.1467 15.96C53.6667 15.9733 53.3067 15.9867 53.0667 16V15.58C53.4667 15.58 53.7467 15.48 53.9067 15.28C54.0667 15.08 54.1467 14.7 54.1467 14.14V7.92C54.1467 7.58667 54.1134 7.3 54.0467 7.06C53.9801 6.80667 53.8534 6.61333 53.6667 6.48C53.4934 6.33333 53.2401 6.26 52.9067 6.26C52.5467 6.26 52.2134 6.36 51.9067 6.56C51.6134 6.74667 51.3734 7.01333 51.1867 7.36C51.0134 7.70667 50.9267 8.10667 50.9267 8.56V14.14C50.9267 14.7 51.0067 15.08 51.1667 15.28C51.3267 15.48 51.6067 15.58 52.0067 15.58V16C51.7667 15.9867 51.4134 15.9733 50.9467 15.96C50.4801 15.9333 50.0067 15.92 49.5267 15.92C49.0067 15.92 48.4801 15.9333 47.9467 15.96C47.4267 15.9733 47.0334 15.9867 46.7667 16V15.58C47.2334 15.58 47.5601 15.48 47.7467 15.28C47.9467 15.08 48.0467 14.7 48.0467 14.14V2.76C48.0467 2.16 47.9534 1.72 47.7667 1.44C47.5934 1.14667 47.2601 0.999999 46.7667 0.999999V0.579999C47.1934 0.62 47.6067 0.64 48.0067 0.64C48.5534 0.64 49.0734 0.62 49.5667 0.579999C50.0601 0.526666 50.5134 0.453332 50.9267 0.359999ZM63.0947 2.38V5.66H65.4547V6.06H63.0947V14.14C63.0947 14.54 63.168 14.8267 63.3147 15C63.4614 15.16 63.6814 15.24 63.9747 15.24C64.2147 15.24 64.4547 15.1533 64.6947 14.98C64.9347 14.7933 65.148 14.48 65.3347 14.04L65.6747 14.22C65.4614 14.82 65.1347 15.3133 64.6947 15.7C64.268 16.0867 63.6814 16.28 62.9347 16.28C62.4947 16.28 62.108 16.22 61.7747 16.1C61.4414 15.9933 61.1614 15.8267 60.9347 15.6C60.6414 15.3067 60.448 14.9467 60.3547 14.52C60.2614 14.08 60.2147 13.5133 60.2147 12.82V6.06H58.5347V5.66H60.2147V3.02C60.7747 3.02 61.288 2.97333 61.7547 2.88C62.2347 2.77333 62.6814 2.60667 63.0947 2.38ZM76.6959 1.8L81.5559 14.32C81.7426 14.8 81.9493 15.1333 82.1759 15.32C82.4159 15.4933 82.6293 15.5867 82.8159 15.6V16C82.4159 15.9733 81.9426 15.96 81.3959 15.96C80.8626 15.9467 80.3226 15.94 79.7759 15.94C79.1626 15.94 78.5826 15.9467 78.0359 15.96C77.4893 15.96 77.0559 15.9733 76.7359 16V15.6C77.4159 15.5733 77.8426 15.46 78.0159 15.26C78.2026 15.0467 78.1626 14.6 77.8959 13.92L74.4959 4.62L74.8559 4.1L71.8159 12.02C71.5226 12.7533 71.3426 13.3533 71.2759 13.82C71.2226 14.2867 71.2559 14.6467 71.3759 14.9C71.5093 15.1533 71.7159 15.3333 71.9959 15.44C72.2893 15.5333 72.6359 15.5867 73.0359 15.6V16C72.5959 15.9733 72.1759 15.96 71.7759 15.96C71.3759 15.9467 70.9693 15.94 70.5559 15.94C70.2626 15.94 69.9826 15.9467 69.7159 15.96C69.4626 15.96 69.2359 15.9733 69.0359 16V15.6C69.3159 15.5467 69.6026 15.3667 69.8959 15.06C70.1893 14.7533 70.4759 14.2333 70.7559 13.5L75.3159 1.8C75.5293 1.81333 75.7559 1.82 75.9959 1.82C76.2493 1.82 76.4826 1.81333 76.6959 1.8ZM78.0959 10.24V10.64H72.1359L72.3359 10.24H78.0959ZM89.1452 1.84V2.24C88.7185 2.25333 88.3918 2.30667 88.1652 2.4C87.9518 2.48 87.8118 2.64 87.7452 2.88C87.6785 3.10667 87.6452 3.46667 87.6452 3.96V13.88C87.6452 14.36 87.6785 14.72 87.7452 14.96C87.8252 15.2 87.9718 15.36 88.1852 15.44C88.3985 15.52 88.7185 15.5733 89.1452 15.6V16C88.7852 15.9733 88.3318 15.96 87.7852 15.96C87.2385 15.9467 86.6852 15.94 86.1252 15.94C85.4718 15.94 84.8652 15.9467 84.3052 15.96C83.7585 15.96 83.3118 15.9733 82.9652 16V15.6C83.3918 15.5733 83.7118 15.52 83.9252 15.44C84.1385 15.36 84.2785 15.2 84.3452 14.96C84.4252 14.72 84.4652 14.36 84.4652 13.88V3.96C84.4652 3.46667 84.4252 3.10667 84.3452 2.88C84.2785 2.64 84.1318 2.48 83.9052 2.4C83.6918 2.30667 83.3785 2.25333 82.9652 2.24V1.84C83.3118 1.85333 83.7585 1.86667 84.3052 1.88C84.8652 1.89333 85.4718 1.9 86.1252 1.9C86.6852 1.9 87.2385 1.89333 87.7852 1.88C88.3318 1.86667 88.7852 1.85333 89.1452 1.84Z" fill="#0A0A0A"/>
</svg>
